<svg width="100" height="100" viewBox="0 0 100 100" fill="none" xmlns="http://www.w3.org/2000/svg">
<g clip-path="url(#clip0_23_84)">
<path d="M126.5 64C126.5 98.5178 98.5178 126.5 64 126.5C29.4822 126.5 1.5 98.5178 1.5 64C1.5 29.4822 29.4822 1.5 64 1.5C98.5178 1.5 126.5 29.4822 126.5 64Z" stroke="currentColor" stroke-width="3"/>
<path d="M121.5 63.5C121.5 69.6612 118.037 75.3755 112.165 79.6071C106.294 83.8371 98.1093 86.5 89 86.5C79.8907 86.5 71.7055 83.8371 65.8353 79.6071C59.9629 75.3755 56.5 69.6612 56.5 63.5C56.5 57.3387 59.9629 51.6244 65.8353 47.3928C71.7055 43.1628 79.8907 40.5 89 40.5C98.1093 40.5 106.294 43.1628 112.165 47.3928C118.037 51.6244 121.5 57.3387 121.5 63.5Z" stroke="currentColor" stroke-width="3"/>
</g>
<defs>
<clipPath id="clip0_23_84">
<rect width="100" height="100" fill="white"/>
</clipPath>
</defs>
</svg>
