<svg width="24" height="24" viewBox="0 0 24 24" fill="none" xmlns="http://www.w3.org/2000/svg">
<path d="M20.25 6.375C20.25 8.653 16.556 10.5 12 10.5C7.444 10.5 3.75 8.653 3.75 6.375M20.25 6.375C20.25 4.097 16.556 2.25 12 2.25C7.444 2.25 3.75 4.097 3.75 6.375M20.25 6.375V17.625C20.25 19.903 16.556 21.75 12 21.75C7.444 21.75 3.75 19.903 3.75 17.625V6.375M20.25 6.375V10.125M3.75 6.375V10.125M20.25 10.125V13.875C20.25 16.153 16.556 18 12 18C7.444 18 3.75 16.153 3.75 13.875V10.125M20.25 10.125C20.25 12.403 16.556 14.25 12 14.25C7.444 14.25 3.75 12.403 3.75 10.125" stroke="url(#paint0_radial_847_702)" stroke-width="1.5" stroke-linecap="round" stroke-linejoin="round"/>
<defs>
<radialGradient id="paint0_radial_847_702" cx="0" cy="0" r="1" gradientUnits="userSpaceOnUse" gradientTransform="translate(12 12) rotate(71.5651) scale(33.2039 28.0956)">
<stop stop-color="#E662A4"/>
<stop offset="0.411458" stop-color="#C992EB"/>
<stop offset="0.619792" stop-color="#A643ED"/>
</radialGradient>
</defs>
</svg>
