<svg width="395" height="46" viewBox="0 0 395 46" fill="none" xmlns="http://www.w3.org/2000/svg">
<path d="M0 46V5.66059H28.8139V11.4234H5.76277V22.9489H23.0511V28.7117H5.76277V40.2372H28.8139V46H0ZM53.9396 34.4745V22.9489H59.7023V34.4745H53.9396ZM65.4651 46V22.9489H71.2279V46H65.4651ZM42.414 46V17.1861H53.9396V22.9489H48.1768V46H42.414ZM59.7023 22.9489V17.1861H65.4651V22.9489H59.7023ZM107.879 40.2372V22.9489H113.642V40.2372H107.879ZM96.3536 22.9489V17.1861H107.879V22.9489H96.3536ZM84.828 46V5.66059H90.5908V22.9489H96.3536V28.7117H90.5908V40.2372H107.879V46H84.828ZM133.005 46V40.2372H150.293V46H133.005ZM127.242 40.2372V22.9489H133.005V28.7117H150.293V22.9489H156.056V34.4745H133.005V40.2372H127.242ZM133.005 22.9489V17.1861H150.293V22.9489H133.005ZM169.656 40.2372V22.9489H175.419V40.2372H169.656ZM175.419 22.9489V17.1861H186.944V22.9489H175.419ZM175.419 46V40.2372H192.707V28.7117H186.944V22.9489H192.707V5.66059H198.47V46H175.419ZM235.121 40.2372V22.9489H240.884V40.2372H235.121ZM223.596 22.9489V17.1861H235.121V22.9489H223.596ZM212.07 46V5.66059H217.833V22.9489H223.596V28.7117H217.833V40.2372H235.121V46H212.07ZM254.484 40.2372V34.4745H260.247V40.2372H254.484ZM260.247 46V40.2372H277.535V34.4745H260.247V28.7117H277.535V22.9489H283.298V46H260.247ZM260.247 22.9489V17.1861H277.535V22.9489H260.247ZM296.898 46V40.2372H319.949V46H296.898ZM319.949 40.2372V34.4745H325.712V40.2372H319.949ZM302.661 34.4745V28.7117H319.949V34.4745H302.661ZM296.898 28.7117V22.9489H302.661V28.7117H296.898ZM302.661 22.9489V17.1861H319.949V22.9489H302.661ZM345.075 46V40.2372H362.363V46H345.075ZM339.312 40.2372V22.9489H345.075V28.7117H362.363V22.9489H368.126V34.4745H345.075V40.2372H339.312ZM345.075 22.9489V17.1861H362.363V22.9489H345.075Z" fill="url(#paint0_linear_644_577)"/>
<defs>
<linearGradient id="paint0_linear_644_577" x1="-8.21906e-07" y1="32.0001" x2="510.5" y2="32.0001" gradientUnits="userSpaceOnUse">
<stop/>
<stop offset="1" stop-color="#2F364D" stop-opacity="0"/>
</linearGradient>
</defs>
</svg>
