<svg width="928" height="181" viewBox="0 0 928 181" fill="none" xmlns="http://www.w3.org/2000/svg">
<g clip-path="url(#clip0_710_610)">
<rect width="928" height="181" fill="white"/>
<path d="M17.6649 167.134V30.9233H49.1637V41.3519H29.5833V156.706H49.1637V167.134H17.6649Z" fill="#FF452C"/>
<path d="M98.5449 146.703C90.6702 146.703 83.8774 144.965 78.1665 141.488C72.491 137.977 68.1103 133.082 65.0243 126.803C61.9737 120.489 60.4484 113.146 60.4484 104.775C60.4484 96.4039 61.9737 89.0258 65.0243 82.6409C68.1103 76.2205 72.4024 71.219 77.9005 67.6364C83.434 64.0183 89.8899 62.2092 97.268 62.2092C101.525 62.2092 105.728 62.9187 109.878 64.3375C114.028 65.7564 117.806 68.0621 121.211 71.2545C124.617 74.4115 127.33 78.5971 129.352 83.8115C131.374 89.0258 132.385 95.4461 132.385 103.073V108.393H69.3873V97.539H119.615C119.615 92.9277 118.693 88.813 116.848 85.1949C115.039 81.5767 112.45 78.7213 109.08 76.6285C105.746 74.5356 101.808 73.4892 97.268 73.4892C92.2665 73.4892 87.9389 74.7307 84.2853 77.2137C80.6672 79.6613 77.8827 82.8537 75.9318 86.7911C73.9808 90.7284 73.0054 94.9495 73.0054 99.4544V106.691C73.0054 112.863 74.0695 118.095 76.1978 122.387C78.3616 126.643 81.3589 129.889 85.1899 132.124C89.0208 134.323 93.4725 135.423 98.5449 135.423C101.844 135.423 104.823 134.962 107.484 134.039C110.18 133.082 112.503 131.663 114.454 129.783C116.405 127.867 117.912 125.491 118.977 122.653L131.108 126.058C129.831 130.173 127.685 133.791 124.67 136.912C121.655 139.999 117.93 142.411 113.496 144.149C109.062 145.851 104.079 146.703 98.5449 146.703ZM149.988 145V63.2734H162.119V76.0432H163.183C164.886 71.6802 167.635 68.2926 171.431 65.8806C175.226 63.433 179.784 62.2092 185.105 62.2092C190.497 62.2092 194.984 63.433 198.566 65.8806C202.184 68.2926 205.004 71.6802 207.026 76.0432H207.878C209.971 71.8221 213.11 68.47 217.295 65.987C221.481 63.4685 226.5 62.2092 232.353 62.2092C239.66 62.2092 245.637 64.4972 250.284 69.073C254.931 73.6134 257.254 80.69 257.254 90.3028V145H244.697V90.3028C244.697 84.2726 243.048 79.9628 239.749 77.3734C236.45 74.7839 232.566 73.4892 228.097 73.4892C222.35 73.4892 217.898 75.2273 214.741 78.7035C211.584 82.1443 210.006 86.5073 210.006 91.7926V145H197.236V89.0258C197.236 84.379 195.729 80.6368 192.714 77.799C189.698 74.9258 185.814 73.4892 181.061 73.4892C177.798 73.4892 174.747 74.3583 171.909 76.0964C169.107 77.8345 166.837 80.2466 165.099 83.3326C163.396 86.3832 162.545 89.9126 162.545 93.9209V145H149.988ZM280.417 145V36.0312H292.974V76.256H294.039C294.961 74.8371 296.238 73.0281 297.87 70.8288C299.537 68.5941 301.913 66.6077 304.999 64.8696C308.121 63.096 312.342 62.2092 317.663 62.2092C324.544 62.2092 330.61 63.9296 335.86 67.3704C341.109 70.8111 345.206 75.6885 348.151 82.0024C351.095 88.3164 352.567 95.7654 352.567 104.35C352.567 113.005 351.095 120.507 348.151 126.856C345.206 133.17 341.127 138.065 335.913 141.542C330.699 144.982 324.686 146.703 317.876 146.703C312.626 146.703 308.422 145.834 305.265 144.095C302.108 142.322 299.679 140.318 297.976 138.083C296.273 135.813 294.961 133.933 294.039 132.443H292.549V145H280.417ZM292.762 104.137C292.762 110.309 293.666 115.754 295.475 120.471C297.284 125.154 299.927 128.825 303.403 131.485C306.879 134.11 311.136 135.423 316.173 135.423C321.423 135.423 325.803 134.039 329.315 131.272C332.862 128.47 335.523 124.71 337.296 119.993C339.105 115.239 340.01 109.954 340.01 104.137C340.01 98.3903 339.123 93.2114 337.349 88.6001C335.611 83.9533 332.969 80.282 329.422 77.5862C325.91 74.8549 321.494 73.4892 316.173 73.4892C311.065 73.4892 306.773 74.7839 303.297 77.3734C299.82 79.9273 297.196 83.51 295.422 88.1213C293.648 92.6971 292.762 98.0356 292.762 104.137ZM404.542 146.703C396.667 146.703 389.874 144.965 384.163 141.488C378.488 137.977 374.107 133.082 371.021 126.803C367.971 120.489 366.445 113.146 366.445 104.775C366.445 96.4039 367.971 89.0258 371.021 82.6409C374.107 76.2205 378.399 71.219 383.897 67.6364C389.431 64.0183 395.887 62.2092 403.265 62.2092C407.522 62.2092 411.725 62.9187 415.875 64.3375C420.025 65.7564 423.803 68.0621 427.208 71.2545C430.614 74.4115 433.327 78.5971 435.349 83.8115C437.371 89.0258 438.382 95.4461 438.382 103.073V108.393H375.384V97.539H425.612C425.612 92.9277 424.69 88.813 422.845 85.1949C421.036 81.5767 418.447 78.7213 415.077 76.6285C411.743 74.5356 407.805 73.4892 403.265 73.4892C398.263 73.4892 393.936 74.7307 390.282 77.2137C386.664 79.6613 383.88 82.8537 381.929 86.7911C379.978 90.7284 379.002 94.9495 379.002 99.4544V106.691C379.002 112.863 380.066 118.095 382.195 122.387C384.359 126.643 387.356 129.889 391.187 132.124C395.018 134.323 399.469 135.423 404.542 135.423C407.841 135.423 410.82 134.962 413.481 134.039C416.177 133.082 418.5 131.663 420.451 129.783C422.402 127.867 423.909 125.491 424.974 122.653L437.105 126.058C435.828 130.173 433.682 133.791 430.667 136.912C427.652 139.999 423.927 142.411 419.493 144.149C415.059 145.851 410.075 146.703 404.542 146.703ZM486.845 146.703C480.035 146.703 474.022 144.982 468.808 141.542C463.594 138.065 459.514 133.17 456.57 126.856C453.626 120.507 452.154 113.005 452.154 104.35C452.154 95.7654 453.626 88.3164 456.57 82.0024C459.514 75.6885 463.611 70.8111 468.861 67.3704C474.111 63.9296 480.177 62.2092 487.058 62.2092C492.379 62.2092 496.582 63.096 499.668 64.8696C502.79 66.6077 505.166 68.5941 506.798 70.8288C508.465 73.0281 509.76 74.8371 510.682 76.256H511.746V36.0312H524.303V145H512.172V132.443H510.682C509.76 133.933 508.447 135.813 506.745 138.083C505.042 140.318 502.612 142.322 499.455 144.095C496.298 145.834 492.095 146.703 486.845 146.703ZM488.548 135.423C493.585 135.423 497.841 134.11 501.318 131.485C504.794 128.825 507.437 125.154 509.246 120.471C511.055 115.754 511.959 110.309 511.959 104.137C511.959 98.0356 511.072 92.6971 509.299 88.1213C507.525 83.51 504.9 79.9273 501.424 77.3734C497.948 74.7839 493.656 73.4892 488.548 73.4892C483.227 73.4892 478.793 74.8549 475.246 77.5862C471.734 80.282 469.092 83.9533 467.318 88.6001C465.58 93.2114 464.711 98.3903 464.711 104.137C464.711 109.954 465.598 115.239 467.371 119.993C469.18 124.71 471.841 128.47 475.352 131.272C478.9 134.039 483.298 135.423 488.548 135.423ZM602.036 145V36.0312H614.593V76.256H615.657C616.579 74.8371 617.856 73.0281 619.488 70.8288C621.155 68.5941 623.531 66.6077 626.617 64.8696C629.739 63.096 633.96 62.2092 639.281 62.2092C646.162 62.2092 652.228 63.9296 657.478 67.3704C662.728 70.8111 666.825 75.6885 669.769 82.0024C672.713 88.3164 674.185 95.7654 674.185 104.35C674.185 113.005 672.713 120.507 669.769 126.856C666.825 133.17 662.745 138.065 657.531 141.542C652.317 144.982 646.304 146.703 639.494 146.703C634.244 146.703 630.04 145.834 626.884 144.095C623.727 142.322 621.297 140.318 619.594 138.083C617.891 135.813 616.579 133.933 615.657 132.443H614.167V145H602.036ZM614.38 104.137C614.38 110.309 615.284 115.754 617.093 120.471C618.902 125.154 621.545 128.825 625.021 131.485C628.497 134.11 632.754 135.423 637.791 135.423C643.041 135.423 647.422 134.039 650.933 131.272C654.48 128.47 657.141 124.71 658.914 119.993C660.723 115.239 661.628 109.954 661.628 104.137C661.628 98.3903 660.741 93.2114 658.968 88.6001C657.229 83.9533 654.587 80.282 651.04 77.5862C647.528 74.8549 643.112 73.4892 637.791 73.4892C632.683 73.4892 628.391 74.7839 624.915 77.3734C621.439 79.9273 618.814 83.51 617.04 88.1213C615.267 92.6971 614.38 98.0356 614.38 104.137ZM715.944 146.915C710.765 146.915 706.065 145.94 701.844 143.989C697.623 142.003 694.271 139.147 691.788 135.423C689.305 131.663 688.064 127.122 688.064 121.802C688.064 117.119 688.986 113.324 690.83 110.415C692.675 107.471 695.14 105.165 698.226 103.498C701.312 101.831 704.717 100.59 708.442 99.7737C712.202 98.9224 715.98 98.2484 719.775 97.7518C724.741 97.1133 728.767 96.6344 731.853 96.3152C734.975 95.9605 737.245 95.3752 738.664 94.5594C740.118 93.7435 740.845 92.3246 740.845 90.3028V89.8771C740.845 84.6273 739.409 80.5481 736.536 77.6394C733.698 74.7307 729.388 73.2764 723.606 73.2764C717.611 73.2764 712.911 74.5888 709.506 77.2137C706.101 79.8386 703.707 82.6409 702.323 85.6205L690.405 81.3639C692.533 76.3979 695.371 72.5315 698.918 69.7647C702.5 66.9624 706.402 65.0115 710.623 63.9119C714.88 62.7768 719.066 62.2092 723.18 62.2092C725.805 62.2092 728.82 62.5285 732.226 63.167C735.666 63.77 738.983 65.0292 742.175 66.9447C745.403 68.8602 748.082 71.7511 750.21 75.6175C752.338 79.4839 753.402 84.6628 753.402 91.1541V145H740.845V133.933H740.207C739.355 135.706 737.937 137.604 735.95 139.626C733.964 141.648 731.321 143.368 728.022 144.787C724.723 146.206 720.697 146.915 715.944 146.915ZM717.86 135.635C722.826 135.635 727.011 134.66 730.417 132.709C733.857 130.758 736.447 128.24 738.185 125.154C739.959 122.068 740.845 118.822 740.845 115.417V103.924C740.313 104.562 739.143 105.148 737.334 105.68C735.56 106.176 733.503 106.62 731.162 107.01C728.856 107.365 726.603 107.684 724.404 107.968C722.24 108.216 720.485 108.429 719.137 108.606C715.873 109.032 712.823 109.723 709.985 110.681C707.183 111.603 704.913 113.005 703.174 114.885C701.472 116.729 700.62 119.248 700.62 122.44C700.62 126.803 702.234 130.102 705.462 132.337C708.726 134.536 712.858 135.635 717.86 135.635ZM832.713 81.5767L821.433 84.7692C820.723 82.8892 819.677 81.0624 818.293 79.2888C816.946 77.4798 815.101 75.99 812.76 74.8194C810.419 73.6488 807.421 73.0636 803.768 73.0636C798.766 73.0636 794.598 74.2164 791.264 76.522C787.965 78.7922 786.316 81.6832 786.316 85.1949C786.316 88.3164 787.451 90.7816 789.721 92.5907C791.991 94.3997 795.538 95.9073 800.363 97.1133L812.494 100.093C819.801 101.867 825.246 104.58 828.829 108.234C832.411 111.852 834.202 116.516 834.202 122.227C834.202 126.909 832.855 131.095 830.159 134.784C827.498 138.473 823.774 141.382 818.985 143.51C814.196 145.638 808.627 146.703 802.278 146.703C793.942 146.703 787.043 144.894 781.58 141.275C776.118 137.657 772.659 132.372 771.205 125.42L783.123 122.44C784.258 126.839 786.404 130.137 789.561 132.337C792.754 134.536 796.922 135.635 802.065 135.635C807.918 135.635 812.565 134.394 816.006 131.911C819.482 129.392 821.22 126.377 821.22 122.866C821.22 120.028 820.227 117.651 818.24 115.736C816.254 113.785 813.203 112.331 809.089 111.373L795.467 108.18C787.983 106.407 782.485 103.658 778.973 99.9333C775.497 96.1733 773.759 91.4733 773.759 85.8333C773.759 81.222 775.054 77.1428 777.643 73.5956C780.268 70.0485 783.833 67.264 788.338 65.2421C792.878 63.2202 798.021 62.2092 803.768 62.2092C811.855 62.2092 818.205 63.9828 822.816 67.53C827.463 71.0771 830.762 75.7594 832.713 81.5767ZM885.872 146.703C877.997 146.703 871.204 144.965 865.493 141.488C859.818 137.977 855.437 133.082 852.351 126.803C849.3 120.489 847.775 113.146 847.775 104.775C847.775 96.4039 849.3 89.0258 852.351 82.6409C855.437 76.2205 859.729 71.219 865.227 67.6364C870.761 64.0183 877.217 62.2092 884.595 62.2092C888.851 62.2092 893.055 62.9187 897.205 64.3375C901.355 65.7564 905.133 68.0621 908.538 71.2545C911.943 74.4115 914.657 78.5971 916.679 83.8115C918.701 89.0258 919.712 95.4461 919.712 103.073V108.393H856.714V97.539H906.942C906.942 92.9277 906.02 88.813 904.175 85.1949C902.366 81.5767 899.777 78.7213 896.407 76.6285C893.072 74.5356 889.135 73.4892 884.595 73.4892C879.593 73.4892 875.266 74.7307 871.612 77.2137C867.994 79.6613 865.209 82.8537 863.259 86.7911C861.308 90.7284 860.332 94.9495 860.332 99.4544V106.691C860.332 112.863 861.396 118.095 863.525 122.387C865.688 126.643 868.686 129.889 872.517 132.124C876.348 134.323 880.799 135.423 885.872 135.423C889.171 135.423 892.15 134.962 894.811 134.039C897.506 133.082 899.83 131.663 901.781 129.783C903.732 127.867 905.239 125.491 906.303 122.653L918.435 126.058C917.158 130.173 915.012 133.791 911.997 136.912C908.981 139.999 905.257 142.411 900.823 144.149C896.389 145.851 891.405 146.703 885.872 146.703Z" fill="url(#paint0_radial_710_610)"/>
<path d="M572.66 30.9233V167.134H541.162V156.706H560.742V41.3519H541.162V30.9233H572.66Z" fill="#FF4D2F"/>
</g>
<defs>
<radialGradient id="paint0_radial_710_610" cx="0" cy="0" r="1" gradientUnits="userSpaceOnUse" gradientTransform="translate(464 90.5) rotate(90) scale(90.5 464)">
<stop offset="0.9999"/>
<stop offset="1" stop-opacity="0"/>
</radialGradient>
<clipPath id="clip0_710_610">
<rect width="928" height="181" fill="white"/>
</clipPath>
</defs>
</svg>
