<svg width="901" height="138" viewBox="0 0 901 138" fill="none" xmlns="http://www.w3.org/2000/svg">
<path d="M0.664866 137.134V0.923274H32.1637V11.3519H12.5833V126.706H32.1637V137.134H0.664866ZM79.7891 116.703C71.9144 116.703 65.1216 114.965 59.4106 111.488C53.7352 107.977 49.3544 103.082 46.2684 96.8031C43.2179 90.4891 41.6926 83.1465 41.6926 74.7752C41.6926 66.4039 43.2179 59.0258 46.2684 52.6409C49.3544 46.2205 53.6465 41.219 59.1446 37.6364C64.6782 34.0183 71.134 32.2092 78.5121 32.2092C82.7687 32.2092 86.9721 32.9187 91.1223 34.3375C95.2725 35.7564 99.0502 38.0621 102.455 41.2545C105.861 44.4115 108.574 48.5971 110.596 53.8115C112.618 59.0258 113.629 65.4461 113.629 73.0725V78.3933H50.6314V67.539H100.859C100.859 62.9277 99.937 58.813 98.0925 55.1949C96.2834 51.5767 93.694 48.7213 90.3242 46.6285C86.9898 44.5356 83.0525 43.4892 78.5121 43.4892C73.5106 43.4892 69.1831 44.7307 65.5295 47.2137C61.9114 49.6613 59.1269 52.8537 57.1759 56.7911C55.225 60.7284 54.2495 64.9495 54.2495 69.4544V76.6907C54.2495 82.8627 55.3137 88.0948 57.442 92.3868C59.6057 96.6434 62.6031 99.8891 66.434 102.124C70.265 104.323 74.7167 105.423 79.7891 105.423C83.088 105.423 86.0676 104.962 88.7279 104.039C91.4238 103.082 93.7472 101.663 95.6981 99.7827C97.6491 97.8672 99.1566 95.4906 100.221 92.6529L112.352 96.0582C111.075 100.173 108.929 103.791 105.914 106.912C102.899 109.999 99.1743 112.411 94.7404 114.149C90.3064 115.851 85.3227 116.703 79.7891 116.703ZM131.232 115V33.2734H143.363V46.0432H144.428C146.13 41.6802 148.879 38.2926 152.675 35.8806C156.47 33.433 161.028 32.2092 166.349 32.2092C171.741 32.2092 176.228 33.433 179.811 35.8806C183.429 38.2926 186.249 41.6802 188.271 46.0432H189.122C191.215 41.8221 194.354 38.47 198.54 35.987C202.725 33.4685 207.744 32.2092 213.597 32.2092C220.904 32.2092 226.881 34.4972 231.528 39.073C236.175 43.6134 238.498 50.69 238.498 60.3028V115H225.941V60.3028C225.941 54.2726 224.292 49.9628 220.993 47.3734C217.694 44.7839 213.81 43.4892 209.341 43.4892C203.594 43.4892 199.143 45.2273 195.986 48.7035C192.829 52.1443 191.25 56.5073 191.25 61.7926V115H178.48V59.0258C178.48 54.379 176.973 50.6368 173.958 47.799C170.943 44.9258 167.059 43.4892 162.305 43.4892C159.042 43.4892 155.991 44.3583 153.154 46.0964C150.351 47.8345 148.081 50.2466 146.343 53.3326C144.64 56.3832 143.789 59.9126 143.789 63.9209V115H131.232ZM261.662 115V6.03119H274.219V46.256H275.283C276.205 44.8371 277.482 43.0281 279.114 40.8288C280.781 38.5941 283.157 36.6077 286.243 34.8696C289.365 33.096 293.586 32.2092 298.907 32.2092C305.788 32.2092 311.854 33.9296 317.104 37.3704C322.354 40.8111 326.451 45.6885 329.395 52.0024C332.339 58.3164 333.811 65.7654 333.811 74.3495C333.811 83.0046 332.339 90.5068 329.395 96.8563C326.451 103.17 322.371 108.065 317.157 111.542C311.943 114.982 305.93 116.703 299.12 116.703C293.87 116.703 289.667 115.834 286.51 114.095C283.353 112.322 280.923 110.318 279.22 108.083C277.517 105.813 276.205 103.933 275.283 102.443H273.793V115H261.662ZM274.006 74.1367C274.006 80.3088 274.91 85.7537 276.719 90.4714C278.528 95.1536 281.171 98.8249 284.647 101.485C288.123 104.11 292.38 105.423 297.417 105.423C302.667 105.423 307.048 104.039 310.559 101.272C314.106 98.4702 316.767 94.7102 318.54 89.9925C320.349 85.2393 321.254 79.954 321.254 74.1367C321.254 68.3903 320.367 63.2114 318.594 58.6001C316.855 53.9533 314.213 50.282 310.666 47.5862C307.154 44.8549 302.738 43.4892 297.417 43.4892C292.309 43.4892 288.017 44.7839 284.541 47.3734C281.065 49.9273 278.44 53.51 276.666 58.1213C274.893 62.6971 274.006 68.0356 274.006 74.1367ZM385.786 116.703C377.911 116.703 371.119 114.965 365.408 111.488C359.732 107.977 355.351 103.082 352.265 96.8031C349.215 90.4891 347.69 83.1465 347.69 74.7752C347.69 66.4039 349.215 59.0258 352.265 52.6409C355.351 46.2205 359.643 41.219 365.142 37.6364C370.675 34.0183 377.131 32.2092 384.509 32.2092C388.766 32.2092 392.969 32.9187 397.119 34.3375C401.269 35.7564 405.047 38.0621 408.452 41.2545C411.858 44.4115 414.571 48.5971 416.593 53.8115C418.615 59.0258 419.626 65.4461 419.626 73.0725V78.3933H356.628V67.539H406.856C406.856 62.9277 405.934 58.813 404.089 55.1949C402.28 51.5767 399.691 48.7213 396.321 46.6285C392.987 44.5356 389.049 43.4892 384.509 43.4892C379.508 43.4892 375.18 44.7307 371.526 47.2137C367.908 49.6613 365.124 52.8537 363.173 56.7911C361.222 60.7284 360.247 64.9495 360.247 69.4544V76.6907C360.247 82.8627 361.311 88.0948 363.439 92.3868C365.603 96.6434 368.6 99.8891 372.431 102.124C376.262 104.323 380.714 105.423 385.786 105.423C389.085 105.423 392.065 104.962 394.725 104.039C397.421 103.082 399.744 101.663 401.695 99.7827C403.646 97.8672 405.154 95.4906 406.218 92.6529L418.349 96.0582C417.072 100.173 414.926 103.791 411.911 106.912C408.896 109.999 405.171 112.411 400.737 114.149C396.303 115.851 391.32 116.703 385.786 116.703ZM468.089 116.703C461.279 116.703 455.266 114.982 450.052 111.542C444.838 108.065 440.759 103.17 437.814 96.8563C434.87 90.5068 433.398 83.0046 433.398 74.3495C433.398 65.7654 434.87 58.3164 437.814 52.0024C440.759 45.6885 444.856 40.8111 450.105 37.3704C455.355 33.9296 461.421 32.2092 468.302 32.2092C473.623 32.2092 477.826 33.096 480.912 34.8696C484.034 36.6077 486.411 38.5941 488.042 40.8288C489.709 43.0281 491.004 44.8371 491.926 46.256H492.991V6.03119H505.547V115H493.416V102.443H491.926C491.004 103.933 489.692 105.813 487.989 108.083C486.286 110.318 483.857 112.322 480.7 114.095C477.543 115.834 473.339 116.703 468.089 116.703ZM469.792 105.423C474.829 105.423 479.086 104.11 482.562 101.485C486.038 98.8249 488.681 95.1536 490.49 90.4714C492.299 85.7537 493.203 80.3088 493.203 74.1367C493.203 68.0356 492.317 62.6971 490.543 58.1213C488.769 53.51 486.144 49.9273 482.668 47.3734C479.192 44.7839 474.9 43.4892 469.792 43.4892C464.471 43.4892 460.037 44.8549 456.49 47.5862C452.979 50.282 450.336 53.9533 448.562 58.6001C446.824 63.2114 445.955 68.3903 445.955 74.1367C445.955 79.954 446.842 85.2393 448.616 89.9925C450.425 94.7102 453.085 98.4702 456.597 101.272C460.144 104.039 464.542 105.423 469.792 105.423ZM553.904 0.923274V137.134H522.406V126.706H541.986V11.3519H522.406V0.923274H553.904Z" fill="url(#paint0_radial_791_597)"/>
<path d="M583.28 115V6.03119H595.837V46.256H596.901C597.823 44.8371 599.1 43.0281 600.732 40.8288C602.399 38.5941 604.776 36.6077 607.862 34.8696C610.983 33.096 615.204 32.2092 620.525 32.2092C627.406 32.2092 633.472 33.9296 638.722 37.3704C643.972 40.8111 648.069 45.6885 651.013 52.0024C653.957 58.3164 655.429 65.7654 655.429 74.3495C655.429 83.0046 653.957 90.5068 651.013 96.8563C648.069 103.17 643.989 108.065 638.775 111.542C633.561 114.982 627.548 116.703 620.738 116.703C615.488 116.703 611.285 115.834 608.128 114.095C604.971 112.322 602.541 110.318 600.838 108.083C599.136 105.813 597.823 103.933 596.901 102.443H595.411V115H583.28ZM595.624 74.1367C595.624 80.3088 596.528 85.7537 598.337 90.4714C600.147 95.1536 602.789 98.8249 606.265 101.485C609.742 104.11 613.998 105.423 619.035 105.423C624.285 105.423 628.666 104.039 632.177 101.272C635.725 98.4702 638.385 94.7102 640.159 89.9925C641.968 85.2393 642.872 79.954 642.872 74.1367C642.872 68.3903 641.985 63.2114 640.212 58.6001C638.474 53.9533 635.831 50.282 632.284 47.5862C628.772 44.8549 624.356 43.4892 619.035 43.4892C613.927 43.4892 609.635 44.7839 606.159 47.3734C602.683 49.9273 600.058 53.51 598.284 58.1213C596.511 62.6971 595.624 68.0356 595.624 74.1367ZM697.188 116.915C692.01 116.915 687.31 115.94 683.088 113.989C678.867 112.003 675.515 109.147 673.032 105.423C670.549 101.663 669.308 97.1223 669.308 91.8016C669.308 87.1193 670.23 83.3238 672.074 80.4152C673.919 77.471 676.384 75.1654 679.47 73.4982C682.556 71.831 685.962 70.5895 689.686 69.7737C693.446 68.9224 697.224 68.2484 701.019 67.7518C705.985 67.1133 710.011 66.6344 713.097 66.3152C716.219 65.9605 718.489 65.3752 719.908 64.5594C721.362 63.7435 722.089 62.3246 722.089 60.3028V59.8771C722.089 54.6273 720.653 50.5481 717.78 47.6394C714.942 44.7307 710.632 43.2764 704.85 43.2764C698.856 43.2764 694.156 44.5888 690.75 47.2137C687.345 49.8386 684.951 52.6409 683.567 55.6205L671.649 51.3639C673.777 46.3979 676.615 42.5315 680.162 39.7647C683.745 36.9624 687.647 35.0115 691.868 33.9119C696.124 32.7768 700.31 32.2092 704.425 32.2092C707.049 32.2092 710.065 32.5285 713.47 33.167C716.911 33.77 720.227 35.0292 723.42 36.9447C726.648 38.8602 729.326 41.7511 731.454 45.6175C733.582 49.4839 734.646 54.6628 734.646 61.1541V115H722.089V103.933H721.451C720.6 105.706 719.181 107.604 717.194 109.626C715.208 111.648 712.565 113.368 709.266 114.787C705.968 116.206 701.942 116.915 697.188 116.915ZM699.104 105.635C704.07 105.635 708.256 104.66 711.661 102.709C715.102 100.758 717.691 98.2397 719.429 95.1536C721.203 92.0676 722.089 88.8219 722.089 85.4167V73.9239C721.557 74.5624 720.387 75.1476 718.578 75.6797C716.804 76.1763 714.747 76.6197 712.406 77.0099C710.1 77.3646 707.848 77.6839 705.648 77.9676C703.485 78.2159 701.729 78.4288 700.381 78.6061C697.117 79.0318 694.067 79.7235 691.229 80.6812C688.427 81.6035 686.157 83.0046 684.419 84.8846C682.716 86.7291 681.865 89.2476 681.865 92.4401C681.865 96.8031 683.479 100.102 686.707 102.337C689.97 104.536 694.102 105.635 699.104 105.635ZM813.957 51.5767L802.677 54.7692C801.967 52.8892 800.921 51.0624 799.538 49.2888C798.19 47.4798 796.345 45.99 794.004 44.8194C791.663 43.6488 788.666 43.0636 785.012 43.0636C780.01 43.0636 775.843 44.2164 772.508 46.522C769.209 48.7922 767.56 51.6832 767.56 55.1949C767.56 58.3164 768.695 60.7816 770.965 62.5907C773.235 64.3997 776.783 65.9073 781.607 67.1133L793.738 70.0929C801.045 71.8665 806.49 74.5801 810.073 78.2337C813.655 81.8518 815.447 86.5163 815.447 92.2272C815.447 96.9095 814.099 101.095 811.403 104.784C808.742 108.473 805.018 111.382 800.229 113.51C795.441 115.638 789.872 116.703 783.522 116.703C775.186 116.703 768.287 114.894 762.824 111.275C757.362 107.657 753.903 102.372 752.449 95.4197L764.368 92.4401C765.503 96.8385 767.649 100.137 770.806 102.337C773.998 104.536 778.166 105.635 783.309 105.635C789.162 105.635 793.809 104.394 797.25 101.911C800.726 99.3925 802.464 96.3774 802.464 92.8657C802.464 90.028 801.471 87.6514 799.484 85.7359C797.498 83.785 794.447 82.3306 790.333 81.3729L776.712 78.1805C769.227 76.4069 763.729 73.6578 760.217 69.9333C756.741 66.1733 755.003 61.4733 755.003 55.8333C755.003 51.222 756.298 47.1428 758.887 43.5956C761.512 40.0485 765.077 37.264 769.582 35.2421C774.122 33.2202 779.266 32.2092 785.012 32.2092C793.1 32.2092 799.449 33.9828 804.06 37.53C808.707 41.0771 812.006 45.7594 813.957 51.5767Z" fill="url(#paint1_radial_791_597)"/>
<path d="M867.116 116.703C859.241 116.703 852.448 114.965 846.737 111.488C841.062 107.977 836.681 103.082 833.595 96.8031C830.545 90.4891 829.019 83.1465 829.019 74.7752C829.019 66.4039 830.545 59.0258 833.595 52.6409C836.681 46.2205 840.973 41.219 846.471 37.6364C852.005 34.0183 858.461 32.2092 865.839 32.2092C870.095 32.2092 874.299 32.9187 878.449 34.3375C882.599 35.7564 886.377 38.0621 889.782 41.2545C893.188 44.4115 895.901 48.5971 897.923 53.8115C899.945 59.0258 900.956 65.4461 900.956 73.0725V78.3933H837.958V67.539H888.186C888.186 62.9277 887.264 58.813 885.419 55.1949C883.61 51.5767 881.021 48.7213 877.651 46.6285C874.317 44.5356 870.379 43.4892 865.839 43.4892C860.837 43.4892 856.51 44.7307 852.856 47.2137C849.238 49.6613 846.454 52.8537 844.503 56.7911C842.552 60.7284 841.576 64.9495 841.576 69.4544V76.6907C841.576 82.8627 842.64 88.0948 844.769 92.3868C846.933 96.6434 849.93 99.8891 853.761 102.124C857.592 104.323 862.043 105.423 867.116 105.423C870.415 105.423 873.394 104.962 876.055 104.039C878.751 103.082 881.074 101.663 883.025 99.7827C884.976 97.8672 886.483 95.4906 887.548 92.6529L899.679 96.0582C898.402 100.173 896.256 103.791 893.241 106.912C890.226 109.999 886.501 112.411 882.067 114.149C877.633 115.851 872.649 116.703 867.116 116.703Z" fill="url(#paint2_radial_791_597)"/>
<defs>
<radialGradient id="paint0_radial_791_597" cx="0" cy="0" r="1" gradientUnits="userSpaceOnUse" gradientTransform="translate(183.5 60.0002) rotate(36.2931) scale(784.74 4014.75)">
<stop/>
<stop offset="1" stop-opacity="0"/>
</radialGradient>
<radialGradient id="paint1_radial_791_597" cx="0" cy="0" r="1" gradientUnits="userSpaceOnUse" gradientTransform="translate(446 60.5) rotate(90) scale(90.5 463)">
<stop offset="0.9999"/>
<stop offset="1" stop-opacity="0"/>
</radialGradient>
<radialGradient id="paint2_radial_791_597" cx="0" cy="0" r="1" gradientUnits="userSpaceOnUse" gradientTransform="translate(446 60.5) rotate(90) scale(198.5 1015.53)">
<stop offset="0.9999"/>
<stop offset="1" stop-opacity="0"/>
</radialGradient>
</defs>
</svg>
