<svg width="489" height="187" viewBox="0 0 489 187" fill="none" xmlns="http://www.w3.org/2000/svg">
<g filter="url(#filter0_d_223_5303)">
<g clip-path="url(#clip0_223_5303)">
<rect x="4" width="481" height="179" rx="8" fill="white"/>
<mask id="mask0_223_5303" style="mask-type:alpha" maskUnits="userSpaceOnUse" x="-77" y="-23" width="1372" height="847">
<rect x="-77" y="-23" width="1372" height="846.898" rx="9.97818" fill="#C4C4C4"/>
</mask>
<g mask="url(#mask0_223_5303)">
<rect x="-77" y="-23" width="222.015" height="846.898" fill="url(#paint0_linear_223_5303)"/>
<rect x="145.015" y="-23" width="1149.99" height="745.869" fill="#FF0000"/>
<g clip-path="url(#clip1_223_5303)">
<rect width="972" height="746" transform="translate(-77 -23.0509)" fill="url(#paint1_linear_223_5303)"/>
<rect x="-77" y="10.6255" width="1149.99" height="1.24727" fill="#555569"/>
<mask id="mask1_223_5303" style="mask-type:alpha" maskUnits="userSpaceOnUse" x="446" y="-15" width="436" height="19">
<rect x="447.271" y="-13.6964" width="433.371" height="16.2145" rx="4.36545" fill="#C4C4C4" stroke="#1E1F25" stroke-width="1.24727"/>
</mask>
<g mask="url(#mask1_223_5303)">
<rect x="448.971" y="-1.84724" width="429.97" height="2.49455" fill="#ECCF7A"/>
<rect x="447.894" y="-13.0727" width="432.124" height="14.9673" rx="3.74182" stroke="#1E1F25" stroke-width="2.49455"/>
</g>
<g filter="url(#filter1_iiiii_223_5303)">
<rect x="15" y="20" width="457.319" height="139.407" fill="#BDCED6"/>
</g>
<path d="M47 113V72.6606H75.8139V78.4234H52.7628V89.9489H70.0511V95.7117H52.7628V107.237H75.8139V113H47ZM100.94 101.474V89.9489H106.702V101.474H100.94ZM112.465 113V89.9489H118.228V113H112.465ZM89.414 113V84.1861H100.94V89.9489H95.1768V113H89.414ZM106.702 89.9489V84.1861H112.465V89.9489H106.702ZM154.879 107.237V89.9489H160.642V107.237H154.879ZM143.354 89.9489V84.1861H154.879V89.9489H143.354ZM131.828 113V72.6606H137.591V89.9489H143.354V95.7117H137.591V107.237H154.879V113H131.828ZM180.005 113V107.237H197.293V113H180.005ZM174.242 107.237V89.9489H180.005V95.7117H197.293V89.9489H203.056V101.474H180.005V107.237H174.242ZM180.005 89.9489V84.1861H197.293V89.9489H180.005ZM216.656 107.237V89.9489H222.419V107.237H216.656ZM222.419 89.9489V84.1861H233.944V89.9489H222.419ZM222.419 113V107.237H239.707V95.7117H233.944V89.9489H239.707V72.6606H245.47V113H222.419ZM282.121 107.237V89.9489H287.884V107.237H282.121ZM270.596 89.9489V84.1861H282.121V89.9489H270.596ZM259.07 113V72.6606H264.833V89.9489H270.596V95.7117H264.833V107.237H282.121V113H259.07ZM301.484 107.237V101.474H307.247V107.237H301.484ZM307.247 113V107.237H324.535V101.474H307.247V95.7117H324.535V89.9489H330.298V113H307.247ZM307.247 89.9489V84.1861H324.535V89.9489H307.247ZM343.898 113V107.237H366.949V113H343.898ZM366.949 107.237V101.474H372.712V107.237H366.949ZM349.661 101.474V95.7117H366.949V101.474H349.661ZM343.898 95.7117V89.9489H349.661V95.7117H343.898ZM349.661 89.9489V84.1861H366.949V89.9489H349.661ZM392.075 113V107.237H409.363V113H392.075ZM386.312 107.237V89.9489H392.075V95.7117H409.363V89.9489H415.126V101.474H392.075V107.237H386.312ZM392.075 89.9489V84.1861H409.363V89.9489H392.075Z" fill="#2F364D"/>
</g>
<path d="M293 14V6.41285H295.168V7.49673H294.084V12.9161H295.168V14H293ZM296.165 10.7484V9.66449H301.584V10.7484H296.165ZM303.665 14V12.9161H306.917V14H303.665ZM304.749 10.7484V9.66449H305.833V10.7484H304.749ZM302.581 12.9161V7.49673H303.665V10.7484H304.749V11.8322H303.665V12.9161H302.581ZM306.917 12.9161V9.66449H305.833V8.58061H306.917V7.49673H308.001V12.9161H306.917ZM303.665 7.49673V6.41285H306.917V7.49673H303.665ZM308.998 14V11.8322H311.166V14H308.998ZM313.247 14V12.9161H316.498V14H313.247ZM314.331 10.7484V9.66449H315.415V10.7484H314.331ZM312.163 12.9161V7.49673H313.247V10.7484H314.331V11.8322H313.247V12.9161H312.163ZM316.498 12.9161V9.66449H315.415V8.58061H316.498V7.49673H317.582V12.9161H316.498ZM313.247 7.49673V6.41285H316.498V7.49673H313.247ZM319.663 14V12.9161H322.915V14H319.663ZM320.747 10.7484V9.66449H321.831V10.7484H320.747ZM318.58 12.9161V7.49673H319.663V10.7484H320.747V11.8322H319.663V12.9161H318.58ZM322.915 12.9161V9.66449H321.831V8.58061H322.915V7.49673H323.999V12.9161H322.915ZM319.663 7.49673V6.41285H322.915V7.49673H319.663ZM326.08 14V12.9161H329.332V14H326.08ZM324.996 12.9161V11.8322H326.08V12.9161H324.996ZM329.332 12.9161V9.66449H330.415V12.9161H329.332ZM324.996 9.66449V6.41285H330.415V7.49673H326.08V8.58061H329.332V9.66449H324.996ZM332.497 14V12.9161H331.413V11.8322H333.58V14H332.497ZM340.994 14V12.9161H344.246V14H340.994ZM342.078 10.7484V9.66449H343.162V10.7484H342.078ZM339.91 12.9161V7.49673H340.994V10.7484H342.078V11.8322H340.994V12.9161H339.91ZM344.246 12.9161V9.66449H343.162V8.58061H344.246V7.49673H345.33V12.9161H344.246ZM340.994 7.49673V6.41285H344.246V7.49673H340.994ZM346.327 14V11.8322H348.495V14H346.327ZM350.576 14V12.9161H353.827V14H350.576ZM351.659 10.7484V9.66449H352.743V10.7484H351.659ZM349.492 12.9161V7.49673H350.576V10.7484H351.659V11.8322H350.576V12.9161H349.492ZM353.827 12.9161V9.66449H352.743V8.58061H353.827V7.49673H354.911V12.9161H353.827ZM350.576 7.49673V6.41285H353.827V7.49673H350.576ZM355.908 14V12.9161H356.992V8.58061H355.908V7.49673H356.992V6.41285H358.076V12.9161H359.16V14H355.908ZM360.157 14V12.9161H361.241V11.8322H362.325V12.9161H365.576V14H360.157ZM362.325 11.8322V10.7484H363.409V11.8322H362.325ZM363.409 10.7484V9.66449H364.493V10.7484H363.409ZM360.157 8.58061V7.49673H361.241V8.58061H360.157ZM364.493 9.66449V7.49673H365.576V9.66449H364.493ZM361.241 7.49673V6.41285H364.493V7.49673H361.241ZM367.658 14V12.9161H366.574V11.8322H368.741V14H367.658ZM375.071 10.7484V9.66449H380.491V10.7484H375.071ZM382.572 14V12.9161H385.823V14H382.572ZM383.656 10.7484V9.66449H384.739V10.7484H383.656ZM381.488 12.9161V7.49673H382.572V10.7484H383.656V11.8322H382.572V12.9161H381.488ZM385.823 12.9161V9.66449H384.739V8.58061H385.823V7.49673H386.907V12.9161H385.823ZM382.572 7.49673V6.41285H385.823V7.49673H382.572ZM387.904 14V11.8322H390.072V14H387.904ZM392.153 14V12.9161H395.405V14H392.153ZM393.237 10.7484V9.66449H394.321V10.7484H393.237ZM391.069 12.9161V7.49673H392.153V10.7484H393.237V11.8322H392.153V12.9161H391.069ZM395.405 12.9161V9.66449H394.321V8.58061H395.405V7.49673H396.489V12.9161H395.405ZM392.153 7.49673V6.41285H395.405V7.49673H392.153ZM398.57 14V12.9161H401.821V14H398.57ZM399.654 10.7484V9.66449H400.737V10.7484H399.654ZM397.486 12.9161V7.49673H398.57V10.7484H399.654V11.8322H398.57V12.9161H397.486ZM401.821 12.9161V9.66449H400.737V8.58061H401.821V7.49673H402.905V12.9161H401.821ZM398.57 7.49673V6.41285H401.821V7.49673H398.57ZM404.986 14V12.9161H408.238V14H404.986ZM403.902 12.9161V10.7484H404.986V12.9161H403.902ZM408.238 12.9161V10.7484H409.322V12.9161H408.238ZM404.986 10.7484V9.66449H408.238V10.7484H404.986ZM403.902 9.66449V7.49673H404.986V9.66449H403.902ZM408.238 9.66449V7.49673H409.322V9.66449H408.238ZM404.986 7.49673V6.41285H408.238V7.49673H404.986ZM411.403 14V12.9161H410.319V11.8322H412.487V14H411.403ZM413.484 14V11.8322H415.652V14H413.484ZM416.649 14V11.8322H418.817V14H416.649ZM419.814 14V11.8322H421.982V14H419.814ZM428.311 10.7484V9.66449H433.731V10.7484H428.311ZM435.812 14V12.9161H439.063V14H435.812ZM436.896 10.7484V9.66449H437.98V10.7484H436.896ZM434.728 12.9161V7.49673H435.812V10.7484H436.896V11.8322H435.812V12.9161H434.728ZM439.063 12.9161V9.66449H437.98V8.58061H439.063V7.49673H440.147V12.9161H439.063ZM435.812 7.49673V6.41285H439.063V7.49673H435.812ZM441.144 14V11.8322H443.312V14H441.144ZM445.393 14V12.9161H448.645V14H445.393ZM446.477 10.7484V9.66449H447.561V10.7484H446.477ZM444.309 12.9161V7.49673H445.393V10.7484H446.477V11.8322H445.393V12.9161H444.309ZM448.645 12.9161V9.66449H447.561V8.58061H448.645V7.49673H449.729V12.9161H448.645ZM445.393 7.49673V6.41285H448.645V7.49673H445.393ZM450.726 14V12.9161H451.81V8.58061H450.726V7.49673H451.81V6.41285H452.894V12.9161H453.978V14H450.726ZM456.059 14V12.9161H459.31V14H456.059ZM457.143 10.7484V9.66449H458.226V10.7484H457.143ZM454.975 12.9161V7.49673H456.059V10.7484H457.143V11.8322H456.059V12.9161H454.975ZM459.31 12.9161V9.66449H458.226V8.58061H459.31V7.49673H460.394V12.9161H459.31ZM456.059 7.49673V6.41285H459.31V7.49673H456.059ZM461.391 14V12.9161H462.475V7.49673H461.391V6.41285H463.559V14H461.391Z" fill="#C0BFC7"/>
</g>
</g>
</g>
<defs>
<filter id="filter0_d_223_5303" x="0" y="0" width="489" height="187" filterUnits="userSpaceOnUse" color-interpolation-filters="sRGB">
<feFlood flood-opacity="0" result="BackgroundImageFix"/>
<feColorMatrix in="SourceAlpha" type="matrix" values="0 0 0 0 0 0 0 0 0 0 0 0 0 0 0 0 0 0 127 0" result="hardAlpha"/>
<feOffset dy="4"/>
<feGaussianBlur stdDeviation="2"/>
<feComposite in2="hardAlpha" operator="out"/>
<feColorMatrix type="matrix" values="0 0 0 0 0 0 0 0 0 0 0 0 0 0 0 0 0 0 0.25 0"/>
<feBlend mode="normal" in2="BackgroundImageFix" result="effect1_dropShadow_223_5303"/>
<feBlend mode="normal" in="SourceGraphic" in2="effect1_dropShadow_223_5303" result="shape"/>
</filter>
<filter id="filter1_iiiii_223_5303" x="15" y="20" width="457.319" height="139.407" filterUnits="userSpaceOnUse" color-interpolation-filters="sRGB">
<feFlood flood-opacity="0" result="BackgroundImageFix"/>
<feBlend mode="normal" in="SourceGraphic" in2="BackgroundImageFix" result="shape"/>
<feColorMatrix in="SourceAlpha" type="matrix" values="0 0 0 0 0 0 0 0 0 0 0 0 0 0 0 0 0 0 127 0" result="hardAlpha"/>
<feOffset dx="-24.5793" dy="-24.5793"/>
<feComposite in2="hardAlpha" operator="arithmetic" k2="-1" k3="1"/>
<feColorMatrix type="matrix" values="0 0 0 0 0.482353 0 0 0 0 0.517647 0 0 0 0 0.580392 0 0 0 1 0"/>
<feBlend mode="normal" in2="shape" result="effect1_innerShadow_223_5303"/>
<feColorMatrix in="SourceAlpha" type="matrix" values="0 0 0 0 0 0 0 0 0 0 0 0 0 0 0 0 0 0 127 0" result="hardAlpha"/>
<feOffset dx="-12.2897" dy="-12.2897"/>
<feComposite in2="hardAlpha" operator="arithmetic" k2="-1" k3="1"/>
<feColorMatrix type="matrix" values="0 0 0 0 0.290196 0 0 0 0 0.352941 0 0 0 0 0.419608 0 0 0 1 0"/>
<feBlend mode="normal" in2="effect1_innerShadow_223_5303" result="effect2_innerShadow_223_5303"/>
<feColorMatrix in="SourceAlpha" type="matrix" values="0 0 0 0 0 0 0 0 0 0 0 0 0 0 0 0 0 0 127 0" result="hardAlpha"/>
<feOffset dx="24.5793" dy="24.5793"/>
<feComposite in2="hardAlpha" operator="arithmetic" k2="-1" k3="1"/>
<feColorMatrix type="matrix" values="0 0 0 0 0.937255 0 0 0 0 1 0 0 0 0 1 0 0 0 1 0"/>
<feBlend mode="normal" in2="effect2_innerShadow_223_5303" result="effect3_innerShadow_223_5303"/>
<feColorMatrix in="SourceAlpha" type="matrix" values="0 0 0 0 0 0 0 0 0 0 0 0 0 0 0 0 0 0 127 0" result="hardAlpha"/>
<feOffset dx="12.2897" dy="12.2897"/>
<feComposite in2="hardAlpha" operator="arithmetic" k2="-1" k3="1"/>
<feColorMatrix type="matrix" values="0 0 0 0 0.678431 0 0 0 0 0.709804 0 0 0 0 0.776471 0 0 0 1 0"/>
<feBlend mode="normal" in2="effect3_innerShadow_223_5303" result="effect4_innerShadow_223_5303"/>
<feColorMatrix in="SourceAlpha" type="matrix" values="0 0 0 0 0 0 0 0 0 0 0 0 0 0 0 0 0 0 127 0" result="hardAlpha"/>
<feOffset dx="-12.2897" dy="-12.2897"/>
<feComposite in2="hardAlpha" operator="arithmetic" k2="-1" k3="1"/>
<feColorMatrix type="matrix" values="0 0 0 0 0.290196 0 0 0 0 0.352941 0 0 0 0 0.419608 0 0 0 1 0"/>
<feBlend mode="normal" in2="effect4_innerShadow_223_5303" result="effect5_innerShadow_223_5303"/>
</filter>
<linearGradient id="paint0_linear_223_5303" x1="34.0073" y1="-23" x2="34.0073" y2="823.898" gradientUnits="userSpaceOnUse">
<stop stop-color="#161622"/>
<stop offset="1" stop-color="#302E4B"/>
</linearGradient>
<linearGradient id="paint1_linear_223_5303" x1="339.152" y1="36.011" x2="334.094" y2="846.091" gradientUnits="userSpaceOnUse">
<stop offset="0.15625" stop-color="#151521"/>
<stop offset="0.447917" stop-color="#302E4B"/>
<stop offset="0.78125" stop-color="#31304D"/>
<stop offset="1" stop-color="#1B1B2B"/>
</linearGradient>
<clipPath id="clip0_223_5303">
<rect x="4" width="481" height="179" rx="8" fill="white"/>
</clipPath>
<clipPath id="clip1_223_5303">
<rect width="972" height="746" fill="white" transform="translate(-77 -23.0509)"/>
</clipPath>
</defs>
</svg>
